<svg display="none" xmlns="http://www.w3.org/2000/svg">
    <symbol id="search" viewBox="0 0 27 28">
        <g>
            <path
                d="M19.0596 17.6259C20.6713 15.8658 21.6282 13.6048 21.7698 11.2225C21.9113 8.84018 21.2288 6.48173 19.8369 4.54318C18.445 2.60463 16.4285 1.20404 14.126 0.576619C11.8234 -0.0508009 9.3751 0.13316 7.19217 1.09761C5.00923 2.06205 3.22463 3.74825 2.13804 5.87302C1.05145 7.9978 0.729054 10.4318 1.225 12.7661C1.72094 15.1005 3.00501 17.1932 4.86158 18.6927C6.71814 20.1922 9.03413 21.0072 11.4206 21.0009C13.673 21.004 15.8645 20.27 17.6606 18.9109L25.4086 26.7179C25.4941 26.807 25.5965 26.8781 25.7099 26.927C25.8232 26.9759 25.9452 27.0017 26.0686 27.0029C26.1923 27.0033 26.3148 26.9782 26.4283 26.9292C26.5419 26.8801 26.6441 26.8082 26.7286 26.7179C26.9025 26.537 26.9997 26.2958 26.9997 26.0449C26.9997 25.794 26.9025 25.5528 26.7286 25.3719L19.0596 17.6259ZM2.88662 10.5009C2.89946 8.81563 3.41094 7.17187 4.35659 5.77685C5.30224 4.38183 6.63972 3.29801 8.20044 2.662C9.76115 2.02599 11.4752 1.86627 13.1266 2.20298C14.7779 2.53969 16.2926 3.35775 17.4797 4.55404C18.6668 5.75033 19.4732 7.27129 19.7972 8.92519C20.1212 10.5791 19.9483 12.2919 19.3002 13.8476C18.6522 15.4034 17.5581 16.7325 16.1559 17.6674C14.7536 18.6023 13.1059 19.1011 11.4206 19.1009C9.14916 19.0901 6.97482 18.1784 5.37484 16.566C3.77486 14.9537 2.87998 12.7724 2.88662 10.5009Z" />
        </g>
    </symbol>
    <symbol id="reg" viewBox="0 0 29 29">
        <path
            d="M14.5 19.937C19 19.937 22.656 15.464 22.656 9.968C22.656 4.472 19 0 14.5 0C13.3631 0.0217413 12.2463 0.303398 11.2351 0.823397C10.2239 1.34339 9.34507 2.08794 8.66602 3C7.12663 4.99573 6.30819 7.45381 6.34399 9.974C6.34399 15.465 10 19.937 14.5 19.937ZM14.5 1.813C18 1.813 20.844 5.472 20.844 9.969C20.844 14.466 17.998 18.125 14.5 18.125C11.002 18.125 8.15603 14.465 8.15503 9.969C8.15403 5.473 11 1.813 14.5 1.813ZM20.844 18.125C20.6036 18.125 20.373 18.2205 20.203 18.3905C20.033 18.5605 19.9375 18.7911 19.9375 19.0315C19.9375 19.2719 20.033 19.5025 20.203 19.6725C20.373 19.8425 20.6036 19.938 20.844 19.938C22.526 19.9399 24.1386 20.6088 25.3279 21.7982C26.5172 22.9875 27.1861 24.6 27.188 26.282C27.1875 26.5221 27.0918 26.7523 26.922 26.9221C26.7522 27.0918 26.5221 27.1875 26.282 27.188H2.71997C2.47985 27.1875 2.24975 27.0918 2.07996 26.9221C1.91016 26.7523 1.81449 26.5221 1.81396 26.282C1.81608 24.6001 2.48517 22.9877 3.67444 21.7985C4.86371 20.6092 6.47608 19.9401 8.15796 19.938C8.39824 19.938 8.62868 19.8425 8.79858 19.6726C8.96849 19.5027 9.06396 19.2723 9.06396 19.032C9.06396 18.7917 8.96849 18.5613 8.79858 18.3914C8.62868 18.2215 8.39824 18.126 8.15796 18.126C5.99541 18.1279 3.92201 18.9875 2.39258 20.5164C0.863144 22.0453 0.00264777 24.1185 0 26.281C0.000794067 27.0019 0.287502 27.693 0.797241 28.2027C1.30698 28.7125 1.99811 28.9992 2.71899 29H26.282C27.0027 28.9989 27.6936 28.7121 28.2031 28.2024C28.7126 27.6927 28.9992 27.0017 29 26.281C28.9974 24.1187 28.1372 22.0457 26.6083 20.5168C25.0793 18.9878 23.0063 18.1276 20.844 18.125Z" />
    </symbol>
    <symbol id="menu" viewBox="0 0 32 23">
        <path d="M0 23V20.31H32V23H0ZM0 12.76V10.07H32V12.76H0ZM0 2.69V0H32V2.69H0Z" />
    </symbol>
    <symbol id="cart" viewBox="0 0 32 29">
        <path
            d="M26.2009 29C25.5532 28.9738 24.9415 28.6948 24.4972 28.2227C24.0529 27.7506 23.8114 27.1232 23.8245 26.475C23.8376 25.8269 24.1043 25.2097 24.5673 24.7559C25.0303 24.3022 25.6527 24.048 26.301 24.048C26.9493 24.048 27.5717 24.3022 28.0347 24.7559C28.4977 25.2097 28.7644 25.8269 28.7775 26.475C28.7906 27.1232 28.549 27.7506 28.1047 28.2227C27.6604 28.6948 27.0488 28.9738 26.401 29H26.2009ZM6.75293 26.32C6.75293 25.79 6.91011 25.2718 7.20459 24.8311C7.49907 24.3904 7.91764 24.0469 8.40735 23.844C8.89705 23.6412 9.43594 23.5881 9.95581 23.6915C10.4757 23.7949 10.9532 24.0502 11.328 24.425C11.7028 24.7998 11.9581 25.2773 12.0615 25.7972C12.1649 26.317 12.1118 26.8559 11.9089 27.3456C11.7061 27.8353 11.3626 28.2539 10.9219 28.5483C10.4812 28.8428 9.96304 29 9.43298 29C9.08087 29.0003 8.73212 28.9311 8.40674 28.7966C8.08136 28.662 7.78569 28.4646 7.53662 28.2158C7.28755 27.9669 7.09001 27.6713 6.9552 27.3461C6.82039 27.0208 6.75098 26.6721 6.75098 26.32H6.75293ZM10.553 20.686C10.2935 20.6868 10.0409 20.6024 9.83411 20.4457C9.62727 20.2891 9.47758 20.0689 9.40796 19.819L4.57495 2.36401H1.18201C0.868521 2.36401 0.567859 2.23947 0.346191 2.01781C0.124523 1.79614 0 1.49549 0 1.18201C0 0.868519 0.124523 0.567873 0.346191 0.346205C0.567859 0.124537 0.868521 5.81268e-06 1.18201 5.81268e-06H5.46301C5.7225 -0.00080736 5.97504 0.0837201 6.18176 0.240568C6.38848 0.397416 6.53784 0.617884 6.60693 0.868006L11.4399 18.323H24.6179L29.001 8.27501H14.401C14.2428 8.27961 14.0854 8.25242 13.9379 8.19507C13.7904 8.13771 13.6559 8.05134 13.5424 7.94108C13.4288 7.83082 13.3386 7.69891 13.277 7.55315C13.2154 7.40739 13.1836 7.25075 13.1836 7.0925C13.1836 6.93426 13.2154 6.77762 13.277 6.63186C13.3386 6.4861 13.4288 6.35419 13.5424 6.24393C13.6559 6.13367 13.7904 6.0473 13.9379 5.98994C14.0854 5.93259 14.2428 5.90541 14.401 5.91001H30.814C31.0097 5.90996 31.2022 5.95866 31.3744 6.05172C31.5465 6.14478 31.6928 6.27926 31.7999 6.44301C31.9078 6.60729 31.9734 6.79569 31.9908 6.99145C32.0083 7.18721 31.9771 7.38424 31.9 7.565L26.495 19.977C26.4026 20.1876 26.251 20.3668 26.0585 20.4927C25.866 20.6186 25.641 20.6858 25.411 20.686H10.553Z" />
    </symbol>
    <symbol id="facebook" viewBox="0 0 11 16">
        <path
            d="M9.08836 8.28L9.50686 5.61602H6.89022V3.88729C6.89022 3.15847 7.25574 2.44806 8.42765 2.44806H9.61722V0.179975C9.61722 0.179975 8.53772 0 7.50561 0C5.35073 0 3.9422 1.27593 3.9422 3.5857V5.61602H1.54688V8.28H3.9422V14.72H6.89022V8.28H9.08836Z" />
    </symbol>
    <symbol id="instagram" viewBox="0 0 16 15">
        <path
            d="M8.13677 3.68162C6.02163 3.68162 4.31555 5.38494 4.31555 7.49666C4.31555 9.60838 6.02163 11.3117 8.13677 11.3117C10.2519 11.3117 11.958 9.60838 11.958 7.49666C11.958 5.38494 10.2519 3.68162 8.13677 3.68162ZM8.13677 9.97693C6.76991 9.97693 5.65248 8.86463 5.65248 7.49666C5.65248 6.12869 6.76658 5.01639 8.13677 5.01639C9.50695 5.01639 10.6211 6.12869 10.6211 7.49666C10.6211 8.86463 9.50363 9.97693 8.13677 9.97693ZM13.0056 3.52557C13.0056 4.02029 12.6065 4.41541 12.1143 4.41541C11.6188 4.41541 11.223 4.01697 11.223 3.52557C11.223 3.03416 11.6221 2.63572 12.1143 2.63572C12.6065 2.63572 13.0056 3.03416 13.0056 3.52557ZM15.5364 4.42869C15.4799 3.2367 15.2072 2.18084 14.3325 1.31092C13.4612 0.440997 12.4036 0.168732 11.2097 0.108966C9.9792 0.0392395 6.29101 0.0392395 5.0605 0.108966C3.8699 0.165411 2.81233 0.437677 1.93768 1.3076C1.06302 2.17752 0.793639 3.23338 0.733776 4.42537C0.663937 5.65389 0.663937 9.33611 0.733776 10.5646C0.790313 11.7566 1.06302 12.8125 1.93768 13.6824C2.81233 14.5523 3.86658 14.8246 5.0605 14.8844C6.29101 14.9541 9.9792 14.9541 11.2097 14.8844C12.4036 14.8279 13.4612 14.5556 14.3325 13.6824C15.2039 12.8125 15.4766 11.7566 15.5364 10.5646C15.6063 9.33611 15.6063 5.65721 15.5364 4.42869ZM13.9468 11.8828C13.6874 12.5336 13.1852 13.0349 12.53 13.2972C11.5489 13.6857 9.22094 13.5961 8.13677 13.5961C7.05259 13.5961 4.72128 13.6824 3.74353 13.2972C3.09169 13.0383 2.58951 12.5369 2.32678 11.8828C1.93768 10.9033 2.02747 8.57908 2.02747 7.49666C2.02747 6.41424 1.941 4.0867 2.32678 3.11053C2.58619 2.45975 3.08837 1.95838 3.74353 1.69608C4.72461 1.3076 7.05259 1.39725 8.13677 1.39725C9.22094 1.39725 11.5523 1.31092 12.53 1.69608C13.1818 1.95506 13.684 2.45643 13.9468 3.11053C14.3359 4.09002 14.2461 6.41424 14.2461 7.49666C14.2461 8.57908 14.3359 10.9066 13.9468 11.8828Z" />
    </symbol>
    <symbol id="pre" viewBox="0 0 13 16">
        <path
            d="M6.7402 0.203125C3.55552 0.203125 0.408081 2.34063 0.408081 5.8C0.408081 8 1.63726 9.25 2.38221 9.25C2.68951 9.25 2.86643 8.3875 2.86643 8.14375C2.86643 7.85313 2.13079 7.23438 2.13079 6.025C2.13079 3.5125 4.03043 1.73125 6.48878 1.73125C8.60259 1.73125 10.167 2.94062 10.167 5.1625C10.167 6.82187 9.50585 9.93437 7.3641 9.93437C6.59121 9.93437 5.93006 9.37187 5.93006 8.56563C5.93006 7.38438 6.74951 6.24062 6.74951 5.02187C6.74951 2.95312 3.83487 3.32812 3.83487 5.82812C3.83487 6.35313 3.90006 6.93437 4.13286 7.4125C3.70451 9.26875 2.82919 12.0344 2.82919 13.9469C2.82919 14.5375 2.91299 15.1188 2.96886 15.7094C3.0744 15.8281 3.02163 15.8156 3.18304 15.7563C4.74744 13.6 4.69157 13.1781 5.39928 10.3562C5.78107 11.0875 6.76814 11.4812 7.55034 11.4812C10.8468 11.4812 12.3274 8.24688 12.3274 5.33125C12.3274 2.22813 9.66415 0.203125 6.7402 0.203125Z" />
    </symbol>
    <symbol id="twiter" viewBox="0 0 17 14">
        <path
            d="M14.4181 3.74107C14.4281 3.88319 14.4281 4.02535 14.4281 4.16747C14.4281 8.50247 11.1509 13.4974 5.16096 13.4974C3.31558 13.4974 1.60132 12.9593 0.159302 12.0253C0.421495 12.0558 0.673569 12.0659 0.94585 12.0659C2.46851 12.0659 3.8702 11.5482 4.98953 10.6649C3.5576 10.6345 2.3576 9.69032 1.94415 8.39081C2.14585 8.42125 2.34751 8.44156 2.5593 8.44156C2.85172 8.44156 3.14418 8.40094 3.41643 8.32991C1.92401 8.02531 0.80465 6.70553 0.80465 5.11163V5.07103C1.23825 5.31469 1.74249 5.46697 2.2769 5.48725C1.39959 4.89841 0.824826 3.89335 0.824826 2.75628C0.824826 2.14716 0.98614 1.58878 1.26851 1.10147C2.87187 3.09131 5.28195 4.39078 7.98443 4.53294C7.93403 4.28928 7.90376 4.0355 7.90376 3.78169C7.90376 1.97457 9.35586 0.502502 11.1609 0.502502C12.0987 0.502502 12.9457 0.89844 13.5407 1.53803C14.2768 1.39591 14.9827 1.12178 15.6079 0.746159C15.3659 1.5076 14.8516 2.14719 14.176 2.55325C14.8315 2.48222 15.4668 2.29944 16.0516 2.04566C15.608 2.69538 15.0533 3.27403 14.4181 3.74107Z" />
    </symbol>
    <symbol id="arrow-left" viewBox="0 0 9 14">
        <path d="M8.99512 2L3.99512 7L8.99512 12L7.99512 14L0.995117 7L7.99512 0L8.99512 2Z" />
    </symbol>
    <symbol id="arrow-right" viewBox="0 0 9 14">
        <path d="M0.994995 12L5.995 7L0.994995 2L1.995 0L8.995 7L1.995 14L0.994995 12Z"/>
    </symbol>
    <symbol id="filter-btn" viewBox="0 0 15 10">
        <path d="M0.833333 10H4.16667C4.625 10 5 9.625 5 9.16667C5 8.70833 4.625 8.33333 4.16667 8.33333H0.833333C0.375 8.33333 0 8.70833 0 9.16667C0 9.625 0.375 10 0.833333 10ZM0 0.833333C0 1.29167 0.375 1.66667 0.833333 1.66667H14.1667C14.625 1.66667 15 1.29167 15 0.833333C15 0.375 14.625 0 14.1667 0H0.833333C0.375 0 0 0.375 0 0.833333ZM0.833333 5.83333H9.16667C9.625 5.83333 10 5.45833 10 5C10 4.54167 9.625 4.16667 9.16667 4.16667H0.833333C0.375 4.16667 0 4.54167 0 5C0 5.45833 0.375 5.83333 0.833333 5.83333Z" />
    </symbol>
    <symbol id="arrow-bottom" viewBox="0 0 11 6">
       <path d="M5.00214 5.00214C4.83521 5.00247 4.67343 4.94433 4.54488 4.83782L0.258102 1.2655C0.112196 1.14422 0.0204417 0.969958 0.00302325 0.781035C-0.0143952 0.592112 0.0439493 0.404007 0.165221 0.258101C0.286493 0.112196 0.460759 0.0204417 0.649682 0.00302327C0.838605 -0.0143952 1.02671 0.043949 1.17262 0.165221L5.00214 3.36602L8.83167 0.279536C8.90475 0.220188 8.98884 0.175869 9.0791 0.149125C9.16937 0.122382 9.26403 0.113741 9.35764 0.1237C9.45126 0.133659 9.54198 0.162021 9.6246 0.207156C9.70722 0.252292 9.7801 0.313311 9.83906 0.386705C9.90449 0.460167 9.95405 0.546351 9.98462 0.639855C10.0152 0.733359 10.0261 0.83217 10.0167 0.930097C10.0073 1.02802 9.97784 1.12296 9.93005 1.20895C9.88227 1.29494 9.81723 1.37013 9.73904 1.42982L5.45225 4.88068C5.32002 4.97036 5.16154 5.01312 5.00214 5.00214Z" />
    </symbol>
    <symbol id="close-card" viewBox="0 0 18 18">
        <path d="M11.2453 9L17.5302 2.71516C17.8285 2.41741 17.9962 2.01336 17.9966 1.59191C17.997 1.17045 17.8299 0.76611 17.5322 0.467833C17.2344 0.169555 16.8304 0.00177586 16.4089 0.00140366C15.9875 0.00103146 15.5831 0.168097 15.2848 0.465848L9 6.75069L2.71516 0.465848C2.41688 0.167571 2.01233 0 1.5905 0C1.16868 0 0.764125 0.167571 0.465848 0.465848C0.167571 0.764125 0 1.16868 0 1.5905C0 2.01233 0.167571 2.41688 0.465848 2.71516L6.75069 9L0.465848 15.2848C0.167571 15.5831 0 15.9877 0 16.4095C0 16.8313 0.167571 17.2359 0.465848 17.5342C0.764125 17.8324 1.16868 18 1.5905 18C2.01233 18 2.41688 17.8324 2.71516 17.5342L9 11.2493L15.2848 17.5342C15.5831 17.8324 15.9877 18 16.4095 18C16.8313 18 17.2359 17.8324 17.5342 17.5342C17.8324 17.2359 18 16.8313 18 16.4095C18 15.9877 17.8324 15.5831 17.5342 15.2848L11.2453 9Z"/>
    </symbol>
    <symbol id="checkmark" viewBox="0 0 20 16">
         <path d="M19.8035 0H18.0904C17.8502 0 17.6222 0.111827 17.4752 0.303176L7.3702 13.2826L2.52481 7.05754C2.45151 6.96318 2.35808 6.88688 2.25153 6.83438C2.14499 6.78187 2.0281 6.75451 1.90963 6.75437H0.196467C0.032258 6.75437 -0.0584248 6.94572 0.0420614 7.07494L6.75503 15.6981C7.06874 16.1006 7.67166 16.1006 7.98782 15.6981L19.9579 0.318087C20.0584 0.191349 19.9677 0 19.8035 0Z" />
    </symbol>
    <symbol id="reg-arrow-btn" viewBox="0 0 17 10">
        <g>
            <path fill-rule="evenodd" clip-rule="evenodd" d="M11.54 0.208095C11.6058 0.142131 11.684 0.0897967 11.77 0.0540883C11.8561 0.01838 11.9483 0 12.0415 0C12.1347 0 12.2269 0.01838 12.313 0.0540883C12.399 0.0897967 12.4772 0.142131 12.543 0.208095L16.7929 4.458C16.8589 4.5238 16.9112 4.60196 16.9469 4.68802C16.9826 4.77407 17.001 4.86632 17.001 4.95949C17.001 5.05266 16.9826 5.14491 16.9469 5.23097C16.9112 5.31702 16.8589 5.39518 16.7929 5.46098L12.543 9.71089C12.41 9.84389 12.2296 9.91861 12.0415 9.91861C11.8534 9.91861 11.673 9.84389 11.54 9.71089C11.407 9.57788 11.3323 9.39749 11.3323 9.2094C11.3323 9.0213 11.407 8.84091 11.54 8.70791L15.2898 4.95949L11.54 1.21107C11.474 1.14528 11.4217 1.06711 11.386 0.981059C11.3503 0.895005 11.3319 0.802752 11.3319 0.709584C11.3319 0.616415 11.3503 0.524162 11.386 0.438109C11.4217 0.352055 11.474 0.273891 11.54 0.208095Z" />
            <path fill-rule="evenodd" clip-rule="evenodd" d="M0 4.95948C0 4.77162 0.0746263 4.59146 0.207462 4.45862C0.340297 4.32579 0.52046 4.25116 0.708318 4.25116H15.583C15.7708 4.25116 15.951 4.32579 16.0838 4.45862C16.2167 4.59146 16.2913 4.77162 16.2913 4.95948C16.2913 5.14734 16.2167 5.3275 16.0838 5.46033C15.951 5.59317 15.7708 5.6678 15.583 5.6678H0.708318C0.52046 5.6678 0.340297 5.59317 0.207462 5.46033C0.0746263 5.3275 0 5.14734 0 4.95948Z"/>

        </g>
    </symbol>
    
</svg>